<svg xmlns:xlink="http://www.w3.org/1999/xlink" xmlns="http://www.w3.org/2000/svg" version="1.1" viewBox="0 0 120 120" height="120px" width="120px">
    <title>404页面</title>
    <defs>
        <rect height="120" width="120" y="0" x="0" id="path-1"></rect>
        <linearGradient id="linearGradient-3" y2="1096.90525%" x2="-19968.8824%" y1="1096.90525%" x1="-20022.964%">
            <stop offset="0%" stop-color="#E9E9E9"></stop>
            <stop offset="66%" stop-color="#D4D4D4"></stop>
            <stop offset="100%" stop-color="#D4D4D4"></stop>
        </linearGradient>
        <linearGradient id="linearGradient-4" y2="2.19009311%" x2="49.8122102%" y1="97.6695974%" x1="50.0428051%">
            <stop offset="0%" stop-opacity="0" stop-color="#FFFFFF"></stop>
            <stop offset="13%" stop-opacity="0.21" stop-color="#F7F7F9"></stop>
            <stop offset="27%" stop-opacity="0.39" stop-color="#F0F1F3"></stop>
            <stop offset="41%" stop-opacity="0.54" stop-color="#EAEBEE"></stop>
            <stop offset="55%" stop-opacity="0.65" stop-color="#E5E7EB"></stop>
            <stop offset="69%" stop-opacity="0.73" stop-color="#E2E3E8"></stop>
            <stop offset="84%" stop-opacity="0.78" stop-color="#E0E2E7"></stop>
            <stop offset="100%" stop-opacity="0.8" stop-color="#DFE1E6"></stop>
        </linearGradient>
        <linearGradient id="linearGradient-5" y2="1.20397712%" x2="49.8095671%" y1="99.6898424%" x1="50.0474227%">
            <stop offset="0%" stop-opacity="0" stop-color="#FFFFFF"></stop>
            <stop offset="13%" stop-opacity="0.21" stop-color="#F7F7F9"></stop>
            <stop offset="27%" stop-opacity="0.39" stop-color="#F0F1F3"></stop>
            <stop offset="41%" stop-opacity="0.54" stop-color="#EAEBEE"></stop>
            <stop offset="55%" stop-opacity="0.65" stop-color="#E5E7EB"></stop>
            <stop offset="69%" stop-opacity="0.73" stop-color="#E2E3E8"></stop>
            <stop offset="84%" stop-opacity="0.78" stop-color="#E0E2E7"></stop>
            <stop offset="100%" stop-opacity="0.8" stop-color="#DFE1E6"></stop>
        </linearGradient>
        <linearGradient id="linearGradient-6" y2="2.08684679%" x2="49.5588669%" y1="98.2664856%" x1="50.1247299%">
            <stop offset="0%" stop-opacity="0" stop-color="#FFFFFF"></stop>
            <stop offset="13%" stop-opacity="0.21" stop-color="#F7F7F9"></stop>
            <stop offset="27%" stop-opacity="0.39" stop-color="#F0F1F3"></stop>
            <stop offset="41%" stop-opacity="0.54" stop-color="#EAEBEE"></stop>
            <stop offset="55%" stop-opacity="0.65" stop-color="#E5E7EB"></stop>
            <stop offset="69%" stop-opacity="0.73" stop-color="#E2E3E8"></stop>
            <stop offset="84%" stop-opacity="0.78" stop-color="#E0E2E7"></stop>
            <stop offset="100%" stop-opacity="0.8" stop-color="#DFE1E6"></stop>
        </linearGradient>
        <linearGradient id="linearGradient-7" y2="6.52749682%" x2="40.1038166%" y1="-26.4793594%" x1="27.1080738%">
            <stop offset="0%" stop-color="#CCCCCC"></stop>
            <stop offset="15%" stop-opacity="0.79" stop-color="#D7D7D7"></stop>
            <stop offset="37%" stop-opacity="0.51" stop-color="#E5E5E5"></stop>
            <stop offset="57%" stop-opacity="0.29" stop-color="#F0F0F0"></stop>
            <stop offset="75%" stop-opacity="0.13" stop-color="#F8F8F8"></stop>
            <stop offset="90%" stop-opacity="0.03" stop-color="#FDFDFD"></stop>
            <stop offset="100%" stop-opacity="0" stop-color="#FFFFFF"></stop>
        </linearGradient>
        <linearGradient id="linearGradient-8" y2="0%" x2="50%" y1="100.167224%" x1="50%">
            <stop offset="0%" stop-opacity="0.25" stop-color="#6D6D6D"></stop>
            <stop offset="54%" stop-opacity="0.12" stop-color="#6D6D6D"></stop>
            <stop offset="100%" stop-opacity="0.1" stop-color="#6D6D6D"></stop>
        </linearGradient>
        <linearGradient id="linearGradient-9" y2="0%" x2="50%" y1="100.021088%" x1="50%">
            <stop offset="0%" stop-opacity="0.25" stop-color="#6D6D6D"></stop>
            <stop offset="54%" stop-opacity="0.12" stop-color="#6D6D6D"></stop>
            <stop offset="100%" stop-opacity="0.1" stop-color="#6D6D6D"></stop>
        </linearGradient>
        <linearGradient id="linearGradient-10" y2="50%" x2="100%" y1="50%" x1="0%">
            <stop offset="27%" stop-color="#DFE1E6"></stop>
            <stop offset="89%" stop-color="#C4C6CC"></stop>
            <stop offset="100%" stop-color="#B5B7BA"></stop>
        </linearGradient>
        <linearGradient id="linearGradient-11" y2="22.5830565%" x2="63.0373986%" y1="86.7923588%" x1="48.7221032%">
            <stop offset="27%" stop-color="#DFE1E6"></stop>
            <stop offset="89%" stop-color="#C4C6CC"></stop>
            <stop offset="100%" stop-color="#B5B7BA"></stop>
        </linearGradient>
        <linearGradient id="linearGradient-12" y2="19.6546356%" x2="42.6367757%" y1="80.1477648%" x1="57.2880625%">
            <stop offset="27%" stop-color="#DFE1E6"></stop>
            <stop offset="89%" stop-color="#C4C6CC"></stop>
            <stop offset="100%" stop-color="#B5B7BA"></stop>
        </linearGradient>
        <linearGradient id="linearGradient-13" y2="50.0125723%" x2="100%" y1="50.0125723%" x1="-0.137174211%">
            <stop offset="27%" stop-color="#DFE1E6"></stop>
            <stop offset="89%" stop-color="#C4C6CC"></stop>
            <stop offset="100%" stop-color="#B5B7BA"></stop>
        </linearGradient>
        <linearGradient id="linearGradient-14" y2="54.320728%" x2="49.8597351%" y1="45.7812799%" x1="50.2478463%">
            <stop offset="27%" stop-color="#DFE1E6"></stop>
            <stop offset="89%" stop-color="#C4C6CC"></stop>
            <stop offset="100%" stop-color="#B5B7BA"></stop>
        </linearGradient>
        <linearGradient id="linearGradient-15" y2="57.6952904%" x2="59.9409121%" y1="42.3766035%" x1="40.6942277%">
            <stop offset="27%" stop-color="#DFE1E6"></stop>
            <stop offset="89%" stop-color="#C4C6CC"></stop>
            <stop offset="100%" stop-color="#B5B7BA"></stop>
        </linearGradient>
        <linearGradient id="linearGradient-16" y2="49.9874277%" x2="99.8628258%" y1="49.9874277%" x1="-0.137174211%">
            <stop offset="27%" stop-color="#DFE1E6"></stop>
            <stop offset="89%" stop-color="#C4C6CC"></stop>
            <stop offset="100%" stop-color="#B5B7BA"></stop>
        </linearGradient>
        <linearGradient id="linearGradient-17" y2="54.3002147%" x2="49.7657477%" y1="45.7944752%" x1="50.1530921%">
            <stop offset="27%" stop-color="#DFE1E6"></stop>
            <stop offset="89%" stop-color="#C4C6CC"></stop>
            <stop offset="100%" stop-color="#B5B7BA"></stop>
        </linearGradient>
        <linearGradient id="linearGradient-18" y2="57.7513627%" x2="60.0201014%" y1="42.4022642%" x1="40.7575223%">
            <stop offset="27%" stop-color="#DFE1E6"></stop>
            <stop offset="89%" stop-color="#C4C6CC"></stop>
            <stop offset="100%" stop-color="#B5B7BA"></stop>
        </linearGradient>
        <linearGradient id="linearGradient-19" y2="50.0518264%" x2="72.8819789%" y1="49.5262512%" x1="27.628298%">
            <stop offset="27%" stop-color="#DFE1E6"></stop>
            <stop offset="89%" stop-color="#C4C6CC"></stop>
            <stop offset="100%" stop-color="#B5B7BA"></stop>
        </linearGradient>
        <linearGradient id="linearGradient-20" y2="99.925278%" x2="50%" y1="-0.0395587007%" x1="50%">
            <stop offset="0%" stop-color="#FDB65B"></stop>
            <stop offset="100%" stop-color="#FD9357"></stop>
        </linearGradient>
    </defs>
    <g fill-rule="evenodd" fill="none" stroke-width="1" stroke="none" id="404页面">
        <g id="分组-2-copy-2">
            <mask fill="white" id="mask-2">
                <use xlink:href="#path-1"></use>
            </mask>
            <g fill-rule="nonzero" id="Mask"></g>
            <g mask="url(#mask-2)" id="分组-28-copy">
                <g transform="translate(2.000000, 12.000000)">
                    <path fill-rule="nonzero" fill="url(#linearGradient-3)" id="路径" d="M40.8579926,7.93003488 L40.8579926,7.93003488 C40.5958755,8.02327197 40.3073139,7.88896503 40.2105948,7.62871268 L38.9637546,4.28068831 C38.8309561,4.03741439 38.9185039,3.73287012 39.1603717,3.59673476 L39.1603717,3.59673476 C39.4210198,3.50572222 39.7071396,3.63677888 39.8077695,3.89327406 L41.0546097,7.24129843 C41.1906388,7.48568137 41.102688,7.79376681 40.8579926,7.93003488 L40.8579926,7.93003488 Z"></path>
                    <ellipse ry="1.71227532" rx="1.71680297" cy="2.8553865" cx="38.8966171" fill-rule="nonzero" fill="#B5B7BA" id="椭圆形"></ellipse>
                    <polygon points="6.51165025 58.4871133 15.8293811 58.4869203 15.8287501 88.8726379 6.51101924 88.8728309" transform="translate(11.170200, 73.679876) rotate(0.450000) translate(-11.170200, -73.679876)" fill-rule="nonzero" fill="url(#linearGradient-4)" id="矩形"></polygon>
                    <polygon points="104.56975 66.7593315 113.887481 66.7591385 113.88685 97.1448561 104.569119 97.1450491" transform="translate(109.228300, 81.952094) rotate(0.450000) translate(-109.228300, -81.952094)" fill-rule="nonzero" fill="url(#linearGradient-5)" id="矩形"></polygon>
                    <polygon points="54.0683803 65.5507469 81.3083967 65.5500286 81.3074327 102.011847 54.0674163 102.012565" transform="translate(67.687907, 83.781297) rotate(0.572939) translate(-67.687907, -83.781297)" fill-rule="nonzero" fill="url(#linearGradient-6)" id="矩形"></polygon>
                    <g transform="translate(20.620818, 0.000000)" fill-rule="evenodd" fill="none" stroke-width="1" opacity="0.6" id="编组">
                        <ellipse ry="16.6246828" rx="21.5074671" cy="22.5011254" cx="25.6713997" transform="translate(25.671400, 22.501125) rotate(-17.840000) translate(-25.671400, -22.501125)" fill-rule="nonzero" fill="#E5E5E5" id="椭圆形"></ellipse>
                    </g>
                    <g transform="translate(21.100372, 0.478289)" fill-rule="evenodd" fill="none" stroke-width="1" opacity="0.8" id="编组">
                        <path fill-rule="nonzero" fill="#FFFFFF" id="路径" d="M8.99163569,29.1086805 C6.23420074,20.5664354 12.962342,10.7615069 24.020855,7.20781819 C27.448653,6.08818897 31.0736032,5.69715983 34.6621561,6.05992412 C29.930964,4.7759015 24.9241725,4.92071554 20.275539,6.47603572 C9.21223048,10.0249416 2.48408922,19.8298701 5.24152416,28.376898 C7.09260223,34.1163684 12.7513383,37.8231096 19.6281413,38.5692408 C14.4969145,37.0817614 10.4926394,33.7624344 8.99163569,29.1086805 Z"></path>
                        <g id="椭圆形" fill-rule="nonzero" fill="#FFFFFF">
                            <ellipse ry="16.2563086" rx="21.0328261" cy="22.0228362" cx="25.1918458" transform="translate(25.191846, 22.022836) rotate(-17.840000) translate(-25.191846, -22.022836)"></ellipse>
                        </g>
                    </g>
                    <polygon points="47.1881041 21.4990994 65.8331599 37.1152416 128.621152 67.6396581 0.206208178 103.975288 39.3042379 45.4422565" fill-rule="nonzero" fill="url(#linearGradient-7)" id="路径"></polygon>
                    <g transform="translate(37.884758, 33.958533)" fill-rule="evenodd" fill="none" stroke-width="1" opacity="0.8" id="编组">
                        <polygon points="-0.242303712 4.74050575 28.4375101 4.76256886 28.4397157 7.62344809 -0.240098138 7.60138497" transform="translate(14.098699, 6.181975) rotate(-17.840000) translate(-14.098699, -6.181975)" fill-rule="nonzero" fill="url(#linearGradient-8)" id="矩形"></polygon>
                    </g>
                    <polygon points="37.5002113 38.243508 66.1800251 38.2655712 66.1822307 41.1264504 37.5024169 41.1043873" transform="translate(51.841221, 39.684979) rotate(-17.840000) translate(-51.841221, -39.684979)" fill-rule="nonzero" fill="#D6D6D6" id="矩形"></polygon>
                    <g transform="translate(3.356877, 4.782892)" fill-rule="evenodd" fill="none" stroke-width="1" opacity="0.8" id="编组">
                        <ellipse ry="11.3431017" rx="43.4991568" cy="24.4626553" cx="45.1131732" transform="translate(45.113173, 24.462655) rotate(-17.840000) translate(-45.113173, -24.462655)" fill-rule="nonzero" fill="url(#linearGradient-9)" id="椭圆形"></ellipse>
                    </g>
                    <path fill-rule="nonzero" fill="#DFE1E6" id="路径" d="M45.1308178,18.7871996 C23.0137918,25.8897942 6.58907063,36.3212816 8.44973978,42.0846664 L88.5352416,16.3718392 C86.6937546,10.6036715 67.2526394,11.6846051 45.1308178,18.7871996 Z"></path>
                    <path fill-rule="nonzero" fill="#FFFFFF" id="路径" d="M51.8733457,39.6645231 C73.9903717,32.5667114 90.4150929,22.135224 88.5544238,16.3670563 L8.46892193,42.0846664 C10.3104089,47.8480512 29.7419331,46.7671176 51.8733457,39.6645231 Z"></path>
                    <path fill-rule="nonzero" fill="#C4C6CC" id="路径" d="M51.8733457,39.6645231 C73.9903717,32.5667114 90.4150929,22.135224 88.5544238,16.3670563 L8.46892193,42.0846664 C10.3104089,47.8480512 29.7419331,46.7671176 51.8733457,39.6645231 Z"></path>
                    <path transform="translate(48.472333, 29.244815) rotate(-17.840000) translate(-48.472333, -29.244815)" fill-rule="nonzero" fill="#B5B7BA" id="矩形" d="M31.2546575,26.3706917 L65.6855973,26.3971791 C67.2663295,26.3983952 68.5474634,27.679527 68.5486821,29.2602592 C68.5498983,30.8378474 67.2719963,32.1177214 65.6944081,32.1189376 C65.6929415,32.1189387 65.691475,32.1189387 65.6900084,32.1189376 L31.2590687,32.0924502 C29.6783364,32.0912341 28.3972025,30.8101024 28.3959839,29.2293701 C28.3947676,27.6517819 29.6726696,26.371908 31.2502579,26.3706917 C31.2517244,26.3706906 31.253191,26.3706906 31.2546575,26.3706917 Z"></path>
                    <g transform="translate(43.639405, 42.089449)" fill-rule="evenodd" fill="none" stroke-width="1" opacity="0.5" id="编组">
                        <path fill-rule="nonzero" fill="#FFFFFF" id="路径" d="M14.2763197,3.49151113 C14.0916427,3.81704988 14.2034137,4.23016891 14.5272178,4.41886078 C14.8510219,4.60755265 15.2667451,4.50182279 15.4604133,4.18152349 C15.6540814,3.8612242 15.553854,3.44516934 15.2354275,3.24758364 C15.0767933,3.1491501 14.8847589,3.11953056 14.7037226,3.16557306 C14.5226863,3.21161557 14.3683224,3.32933375 14.2763197,3.49151113 L14.2763197,3.49151113 Z"></path>
                        <path fill-rule="nonzero" fill="#FFFFFF" id="路径" d="M7.61052045,8.37484383 C7.42584344,8.70038258 7.53761441,9.1135016 7.86141851,9.30219347 C8.18522261,9.49088534 8.60094588,9.38515548 8.79461404,9.06485619 C8.98828219,8.74455689 8.88805472,8.32850204 8.56962825,8.13091634 C8.41099407,8.03248279 8.21895964,8.00286325 8.03792336,8.04890576 C7.85688708,8.09494826 7.70252311,8.21266644 7.61052045,8.37484383 L7.61052045,8.37484383 Z"></path>
                        <path fill-rule="nonzero" fill="#FFFFFF" id="路径" d="M20.6016357,9.14010654 C20.4169587,9.46564529 20.5287296,9.87876432 20.8525338,10.0674562 C21.1763379,10.2561481 21.5920611,10.1504182 21.7857293,9.8301189 C21.9793974,9.50981961 21.87917,9.09376475 21.5607435,8.89617905 C21.4021093,8.79774551 21.2100749,8.76812597 21.0290386,8.81416847 C20.8480023,8.86021098 20.6936384,8.97792916 20.6016357,9.14010654 Z"></path>
                        <path fill-rule="nonzero" fill="#FFFFFF" id="路径" d="M27.7901487,6.42342391 C27.6686408,6.60762987 27.6586543,6.84358635 27.7641653,7.03734991 C27.8696762,7.23111346 28.0735548,7.35122647 28.2946291,7.34987869 C28.5157034,7.34850809 28.7180818,7.22589735 28.8211896,7.03085119 L28.8211896,7.03085119 C28.9703397,6.74870816 28.8711567,6.39947415 28.595807,6.23725466 C28.3204573,6.07503517 27.9659153,6.15696173 27.7901487,6.42342391 L27.7901487,6.42342391 Z"></path>
                        <path fill-rule="nonzero" fill="#FFFFFF" id="路径" d="M14.1804089,0.306105086 C14.0947281,0.432986209 14.0867239,0.59680934 14.1596296,0.731397996 C14.2325354,0.865986652 14.3743061,0.949105081 14.5276735,0.94717753 C14.6810408,0.945249978 14.8206665,0.858594902 14.8901487,0.722216686 C14.9888868,0.528415392 14.919376,0.291445503 14.7314753,0.181281611 C14.5435745,0.0711177183 14.3021663,0.125799706 14.1804089,0.306105086 L14.1804089,0.306105086 Z"></path>
                        <path fill-rule="nonzero" fill="#FFFFFF" id="路径" d="M11.92171,8.02569271 C11.8065003,8.22248582 11.8730584,8.4751678 12.0703718,8.59007381 C12.2676853,8.70497982 12.5210354,8.63859732 12.6362454,8.44180432 C12.7514551,8.24501121 12.684897,7.99232923 12.4875836,7.87742322 C12.2902701,7.76251721 12.03692,7.82889971 11.92171,8.02569271 L11.92171,8.02569271 Z"></path>
                        <path fill-rule="nonzero" fill="#FFFFFF" id="路径" d="M8.09486989,2.4966696 C7.973362,2.68087557 7.96337553,2.91683205 8.06888647,3.1105956 C8.17439741,3.30435916 8.37827601,3.42447217 8.59935028,3.42312439 C8.82042454,3.42175378 9.02280295,3.29914305 9.12591078,3.10409688 L9.12591078,3.10409688 C9.27506088,2.82195386 9.1758779,2.47271985 8.90052818,2.31050036 C8.62517847,2.14828087 8.2706365,2.23020743 8.09486989,2.4966696 L8.09486989,2.4966696 Z"></path>
                        <path fill-rule="nonzero" fill="#FFFFFF" id="路径" d="M0.153457249,10.5606255 C0.0241909363,10.7450575 0.00970650287,10.98626 0.115977295,11.1847617 C0.222248087,11.3832634 0.43127174,11.5054379 0.656847388,11.5009008 C0.882423036,11.4963636 1.08633797,11.3658834 1.18449814,11.1632698 L1.18449814,11.1632698 C1.35267809,10.8779859 1.25713499,10.5107403 0.971096654,10.3430039 C0.685058322,10.1752675 0.316841655,10.2705586 0.14866171,10.5558426 L0.153457249,10.5606255 Z"></path>
                    </g>
                    <path transform="translate(52.739564, 58.081363) rotate(0.450000) translate(-52.739564, -58.081363)" fill-rule="nonzero" fill="url(#linearGradient-10)" id="矩形" d="M52.7396241,55.2020618 C53.1646999,55.2020618 53.509292,55.5466539 53.509292,55.9717297 C53.509292,55.971735 53.509292,55.9717404 53.509292,55.9717457 L53.5092044,60.1909808 C53.5091955,60.616068 53.1645918,60.9606647 52.7395045,60.9606647 C52.3144286,60.9606647 51.9698366,60.6160726 51.9698366,60.1909967 C51.9698366,60.1909914 51.9698366,60.1909861 51.9698366,60.1909808 L51.9699242,55.9717457 C51.969933,55.5466584 52.3145368,55.2020618 52.7396241,55.2020618 Z"></path>
                    <path transform="translate(58.608203, 59.663654) rotate(50.710000) translate(-58.608203, -59.663654)" fill-rule="nonzero" fill="url(#linearGradient-11)" id="矩形" d="M58.6119345,56.7797925 C59.0352505,56.7792445 59.3788603,57.1219657 59.3794083,57.5452818 C59.3794091,57.5459431 59.3794091,57.5466044 59.3794083,57.5472658 L59.3739341,61.7780524 C59.3733845,62.2027871 59.0292063,62.5469656 58.6044716,62.5475154 C58.1811556,62.5480634 57.8375458,62.2053422 57.8369978,61.7820261 C57.836997,61.7813648 57.836997,61.7807034 57.8369978,61.7800421 L57.842472,57.5492554 C57.8430216,57.1245208 58.1871998,56.7803423 58.6119345,56.7797925 Z"></path>
                    <path transform="translate(46.555164, 59.805759) rotate(132.510000) translate(-46.555164, -59.805759)" fill-rule="nonzero" fill="url(#linearGradient-12)" id="矩形" d="M46.5513714,56.9223208 C46.9761736,56.9228796 47.3204045,57.2671106 47.3209633,57.6919128 L47.3265263,61.9216273 C47.3270831,62.3449876 46.9843332,62.6886403 46.5609729,62.6891971 C46.5603006,62.689198 46.5596284,62.689198 46.5589562,62.6891971 C46.134154,62.6886383 45.7899231,62.3444073 45.7893644,61.9196051 L45.7838013,57.6898907 C45.7832445,57.2665303 46.1259944,56.9228776 46.5493548,56.9223208 C46.550027,56.9223199 46.5506992,56.9223199 46.5513714,56.9223208 Z"></path>
                    <path transform="translate(70.650375, 71.472218) rotate(0.450000) translate(-70.650375, -71.472218)" fill-rule="nonzero" fill="url(#linearGradient-13)" id="矩形" d="M70.6505725,61.9614354 C71.6159317,61.9614354 72.3985099,62.7440136 72.3985099,63.7093728 C72.3985099,63.7093849 72.3985099,63.709397 72.3985099,63.7094091 L72.3981875,79.2350261 C72.3981674,80.2004112 71.6155626,80.9829998 70.6501775,80.9829998 C69.6848183,80.9829998 68.9022401,80.2004216 68.9022401,79.2350624 C68.9022401,79.2350503 68.9022401,79.2350382 68.9022401,79.2350261 L68.9025625,63.7094091 C68.9025826,62.744024 69.6851874,61.9614354 70.6505725,61.9614354 Z"></path>
                    <path fill-rule="nonzero" fill="url(#linearGradient-14)" id="路径" d="M59.2488563,75.5122983 L59.2488563,75.5122983 C59.2646575,74.5492321 60.0575517,73.779802 61.0232342,73.7904572 L69.6552045,73.8526348 C70.6181687,73.8683656 71.3874866,74.6570275 71.3769129,75.6175219 L71.3769129,75.6175219 C71.37175,76.0801046 71.1823114,76.5216612 70.8503078,76.8447129 C70.5183043,77.1677645 70.0710383,77.345745 69.6072491,77.339363 L60.9752788,77.2771855 C60.0126692,77.2588854 59.2434631,76.4725285 59.2488563,75.5122983 L59.2488563,75.5122983 Z"></path>
                    <path fill-rule="nonzero" fill="url(#linearGradient-15)" id="路径" d="M60.1456506,77.0667382 L60.1456506,77.0667382 C59.7334358,76.843561 59.4279319,76.4651152 59.2972945,76.0158293 C59.1666571,75.5665435 59.2217554,75.0837989 59.4502974,74.6752922 L63.5696654,67.0848427 C63.7934328,66.6737151 64.1728793,66.3690168 64.6233531,66.238724 C65.073827,66.1084311 65.5578481,66.1633841 65.9674349,66.3913233 L65.9674349,66.3913233 C66.8125777,66.855752 67.1214623,67.9147429 66.6579926,68.7588549 L62.5194424,76.3971333 C62.0471249,77.233021 60.9869639,77.5320738 60.1456506,77.0667382 L60.1456506,77.0667382 Z"></path>
                    <path transform="translate(40.254786, 71.789367) rotate(0.572939) translate(-40.254786, -71.789367)" fill-rule="nonzero" fill="url(#linearGradient-16)" id="矩形" d="M40.2550372,62.2781082 C41.220439,62.2781082 42.0030519,63.0607211 42.0030519,64.0261229 C42.0030519,64.0261383 42.0030519,64.0261538 42.0030519,64.0261692 L42.0026413,79.5525648 C42.0026158,80.5179996 41.2199691,81.3006257 40.2545342,81.3006257 C39.2891324,81.3006257 38.5065195,80.5180128 38.5065195,79.552611 C38.5065195,79.5525956 38.5065195,79.5525802 38.5065195,79.5525648 L38.50693,64.0261692 C38.5069556,63.0607343 39.2896023,62.2781082 40.2550372,62.2781082 Z"></path>
                    <path fill-rule="nonzero" fill="url(#linearGradient-17)" id="路径" d="M30.9407587,75.2875024 L30.9407587,75.2875024 C30.9565906,74.3244362 31.7494848,73.5550061 32.7151673,73.5656613 L41.3711152,73.6278389 C42.3340795,73.6435697 43.1033974,74.4322316 43.0928237,75.392726 L43.0928237,75.392726 C43.0876608,75.8553087 42.8982222,76.2968653 42.5662186,76.6199169 C42.2342151,76.9429686 41.786949,77.1209491 41.3231599,77.1145671 L32.6911896,77.0523895 C32.2240186,77.0511321 31.7766264,76.8641715 31.4480905,76.5329112 C31.1195547,76.2016509 30.9369869,75.7534273 30.9407587,75.2875024 L30.9407587,75.2875024 Z"></path>
                    <path fill-rule="nonzero" fill="url(#linearGradient-18)" id="路径" d="M31.8375836,76.8419423 L31.8375836,76.8419423 C31.4253689,76.618765 31.119865,76.2403192 30.9892276,75.7910334 C30.8585902,75.3417476 30.9136885,74.8590029 31.1422305,74.4504963 L35.2615985,66.8600468 C35.7272553,66.0171329 36.7890463,65.7090628 37.6353903,66.1713103 L37.6353903,66.1713103 C38.4805331,66.635739 38.7894177,67.6947298 38.325948,68.5388418 L34.2113755,76.1292914 C33.9918429,76.5382508 33.6181408,76.843251 33.1727695,76.9769587 C32.7273982,77.1106664 32.2469833,77.062086 31.8375836,76.8419423 L31.8375836,76.8419423 Z"></path>
                    <path fill-rule="nonzero" fill="url(#linearGradient-19)" id="形状" d="M56.4339033,64.062055 C55.4526339,65.1707378 54.0212461,65.7772975 52.5399257,65.7121527 C51.0657052,65.7521735 49.6535157,65.1201248 48.7034944,63.9950945 C47.6648216,64.9994129 47.0753986,66.3785766 47.0682156,67.821408 L47.0106691,74.8522592 C46.9868326,77.8794392 49.4280125,80.3527258 52.463197,80.3764994 C55.4983816,80.4002731 57.9782081,77.9655312 58.0020446,74.9383513 L58.0595911,67.9075001 C58.0552211,66.460411 57.4696981,65.0753992 56.4339033,64.062055 L56.4339033,64.062055 Z M54.3862082,74.8857395 C54.2776861,75.8985501 53.4164646,76.6640272 52.3952305,76.6554472 C51.3739963,76.6467219 50.5259382,75.8667625 50.434684,74.8522592 L50.4778439,69.5910781 C50.5852246,68.5782207 51.4454768,67.8118102 52.4666467,67.8191729 C53.4878165,67.8266424 54.3367872,68.6054658 54.429368,69.6197754 L54.3862082,74.8857395 Z"></path>
                    <path fill-rule="nonzero" fill="#FCD9CB" id="路径" d="M80.3924164,57.3181773 C79.6103442,58.9729642 79.1358899,60.7555784 78.992119,62.5793584 C78.992119,62.5793584 78.4837918,61.7614839 75.7743123,60.9005634 C75.7280455,60.642416 75.6023395,60.4050403 75.4146468,60.2213927 C75.2414204,59.9146845 74.8934459,59.7498536 74.5456411,59.8097562 C74.1978364,59.8696589 73.9254402,60.1413367 73.8653791,60.4882242 C73.8053181,60.8351117 73.9705849,61.1821685 74.2781041,61.3549381 C74.462915,61.5472716 74.7051698,61.6747911 74.9686617,61.7184379 C75.7167658,62.3449967 76.6998513,63.6842065 79.3613755,64.4399034 C79.3613755,64.4399034 79.7594052,64.8273177 80.0231599,64.1098839 C80.0231599,64.1098839 81.5481413,62.8567662 82.2818587,57.8060323 L80.3924164,57.3181773 Z"></path>
                    <path fill-rule="nonzero" fill="#FCD9CB" id="路径" d="M85.4565056,57.5812363 C85.4927135,59.4170698 85.8648822,61.2308623 86.554684,62.9332925 C84.8306861,62.8722148 83.1054279,63.0118618 81.4138662,63.3494041 L81.3131599,64.1816273 C83.3972546,64.7582283 85.5870176,64.8449984 87.7104089,64.4351205 C87.7104089,64.4351205 88.2379182,64.6073046 88.1563941,63.8516077 C88.1563941,63.8516077 88.9668401,62.0484574 87.3747212,57.2033879 L85.4565056,57.5812363 Z"></path>
                    <polygon points="83.2937175 56.4620396 83.2937175 54.233212 84.900223 54.233212 85.0584758 56.4620396" fill-rule="nonzero" fill="#FCD9CB" id="路径"></polygon>
                    <path fill-rule="nonzero" fill="#333333" id="路径" d="M79.5388104,84.6858851 C79.5388104,84.6858851 77.4767286,84.5854444 79.0976208,85.575503 C79.0976208,85.575503 81.4953903,87.0868969 82.4544981,86.14945 C82.6592517,85.7634397 82.6179566,85.2935433 82.3489963,84.9489442 C81.4217964,84.7793683 80.4814545,84.6913437 79.5388104,84.6858851 Z"></path>
                    <path fill-rule="nonzero" fill="#333333" id="路径" d="M84.3247584,84.3845629 C84.3247584,84.3845629 82.2866543,84.0784578 83.7972491,85.221569 C83.7972491,85.221569 86.0415613,86.9673246 87.0726022,86.1255356 C87.3120704,85.7610038 87.3120704,85.2895615 87.0726022,84.9250297 C86.17456,84.6638625 85.2549786,84.4829922 84.3247584,84.3845629 Z"></path>
                    <path fill-rule="nonzero" fill="#666666" id="路径" d="M81.9317844,66.7261258 C81.9317844,66.7261258 80.5650558,67.5009543 80.7712639,69.8637029 L80.7712639,84.9489442 L82.3585874,84.9489442 C82.3585874,84.9489442 82.5983643,76.9280343 83.9459108,71.8103399 C83.9459108,71.8103399 85.077658,76.1866861 85.0249071,84.9489442 C85.6738221,85.2436374 86.4188916,85.2436374 87.0678067,84.9489442 C87.0678067,84.9489442 87.6432714,72.7430039 86.9623048,67.6827042 L81.9317844,66.7261258 Z"></path>
                    <ellipse ry="2.13765033" rx="2.48845942" cy="52.7098979" cx="84.2705788" transform="translate(84.270579, 52.709898) rotate(-63.010000) translate(-84.270579, -52.709898)" fill-rule="nonzero" fill="#FCD9CB" id="椭圆形"></ellipse>
                    <path fill-rule="nonzero" fill="#666666" id="路径" d="M86.2046097,50.2729774 C86.2046097,50.2729774 84.765948,49.2398728 83.5862454,50.115142 C83.5862454,50.115142 82.8045725,50.5934312 82.684684,50.1629709 C82.684684,50.1629709 81.8502602,50.7560495 83.0635316,51.487832 C83.3033972,51.6376603 83.5914986,51.6906816 83.8691822,51.6361016 C83.8691822,51.6361016 84.6172862,51.5452267 84.2000743,52.3583183 C84.2000743,52.3583183 83.9507063,53.0231403 83.3800372,52.994443 C83.3800372,52.994443 82.7662082,53.4440348 83.8212268,54.6541065 C83.8212268,54.6541065 85.5572119,55.6106849 87.0630112,53.080535 C87.0630112,53.080535 87.9166171,51.5260951 86.2046097,50.2729774 Z"></path>
                    <path fill-rule="nonzero" fill="url(#linearGradient-20)" id="路径" d="M87.5713383,59.1787223 L87.9981413,58.9969724 C87.8830483,56.3759476 85.7394424,56.0220136 85.7394424,56.0220136 C84.7086548,56.2559427 83.6400113,56.27061 82.6031599,56.0650596 C82.6031599,56.0650596 80.2053903,55.8115663 79.5388104,59.5565707 L81.0685874,60.0731231 C81.0528762,61.9422353 80.9006142,63.8077208 80.6130112,65.654758 C80.6130112,65.654758 80.0615242,67.3765991 81.0685874,67.6874871 C81.0685874,67.6874871 84.6940149,68.6440655 86.9431227,67.6874871 C86.9431227,67.6874871 87.6768401,67.3765991 87.4658364,65.7743303 C87.2727744,63.7055633 87.2856252,61.6228112 87.5042007,59.5565707 C87.5042007,59.5565707 87.5377695,59.4035182 87.5713383,59.1787223 Z"></path>
                </g>
            </g>
        </g>
    </g>
</svg>