<svg viewBox="0 0 1832 1024" version="1.1" xmlns="http://www.w3.org/2000/svg"><path d="M1782.902725 0a44.521739 44.521739 0 0 1 43.883594 52.045913l-160.352464 934.956522a44.521739 44.521739 0 0 1-43.876174 36.997565H204.874203a44.521739 44.521739 0 0 1-43.876174-36.997565l-160.352464-934.956522A44.521739 44.521739 0 0 1 44.529159 0h1738.373566zM913.719652 175.541797c-40.418319 0-73.178899 32.76058-73.178898 73.178899v541.19142c0 40.410899 32.76058 73.171478 73.178898 73.171478 40.410899 0 73.171478-32.76058 73.171478-73.171478V248.720696c0-40.418319-32.76058-73.178899-73.171478-73.178899z m463.575189 4.229565c-39.921159-6.314667-77.401043 20.917797-83.723131 60.831537l-84.702609 534.53542c-6.322087 39.921159 20.910377 77.393623 60.824116 83.71571 39.921159 6.322087 77.393623-20.917797 83.723131-60.831536L1438.126377 263.494493c6.314667-39.921159-20.917797-77.393623-60.824116-83.70829zM504.245797 238.592c-7.249623-38.808116-44.135884-65.024-83.374377-58.805797-39.913739 6.314667-67.138783 43.78713-60.824116 83.70829l84.702609 534.53542 0.348754 2.018319c7.242203 38.808116 44.135884 65.024 83.374376 58.813217 39.906319-6.322087 67.138783-43.794551 60.824116-83.71571L504.594551 240.602899z"></path></svg>