<svg xmlns="http://www.w3.org/2000/svg" xmlns:xlink="http://www.w3.org/1999/xlink" viewBox="0 0 32 32"><path d="M9 12v-2H4a2 2 0 0 0-2 2v16a2 2 0 0 0 2 2h16a2 2 0 0 0 2-2v-9h-2v9H4V12" fill="currentColor"></path><path d="M22 12h-8V4h8zM12 4v8a2 2 0 0 0 2 2h8a2 2 0 0 0 2-2V4a2 2 0 0 0-2-2h-8a2 2 0 0 0-2 2z" fill="currentColor"></path><path d="M14 18v4h-4v-4h4m-6 0v4a2 2 0 0 0 2 2h4a2 2 0 0 0 2-2v-4a2 2 0 0 0-2-2h-4a2 2 0 0 0-2 2z" fill="currentColor"></path><path d="M28 17v2h-2v-2h2m-4-1v4a1 1 0 0 0 1 1h4a1 1 0 0 0 1-1v-4a1 1 0 0 0-1-1h-4a1 1 0 0 0-1 1z" fill="currentColor"></path></svg>