<svg viewBox="0 0 1024 1024" version="1.1" xmlns="http://www.w3.org/2000/svg"><path d="M386.7 487.4L280 574.8c-30.9 31.3-47.9 72.7-47.9 116.6 0 44.3 17.3 85.9 48.6 117.3 31.3 31.3 73 48.6 117.3 48.6 42.4 0 82.4-15.8 113.2-44.7-23.6-32.9-35.7-72.6-34.3-113.5 1.6-46.8 20.7-90.9 53.9-124.1 54.5-54.5 137.4-68.9 206.6-37.5l102.9-125.6-162.9-162.7-42.8 35.1 59.4 59.4c7.5 7.5 7.5 19.6 0 27.1-3.7 3.7-8.6 5.6-13.6 5.6s-9.8-1.9-13.6-5.6l-62.1-62.1-41.8 34.3 28.7 28.7c7.5 7.5 7.5 19.6 0 27.1-3.7 3.7-8.6 5.6-13.6 5.6-4.9 0-9.8-1.9-13.6-5.6L533 367.4 439.6 444c-3.6 2.9-7.9 4.3-12.1 4.3-5.5 0-11.1-2.4-14.8-7l-23.3 19.1c6.7 8.2 5.5 20.3-2.7 27z" fill="#A6CB70" p-id="23213"></path><path d="M954.3 349.5c3.6-3.6 5.6-8.5 5.6-13.6s-2-10-5.6-13.6L766.9 135.1c-7.5-7.5-19.6-7.5-27.1 0l-74 74-71.7 58.8-0.2 0.2-71.5 58.6c-0.1 0.1-0.2 0.2-0.3 0.2l-106.8 87.5c-8.2 6.7-9.4 18.8-2.7 27 3.8 4.6 9.3 7 14.8 7 4.3 0 8.6-1.4 12.1-4.3l93.5-76.6 31.4 31.4c3.7 3.7 8.6 5.6 13.6 5.6 4.9 0 9.8-1.9 13.6-5.6 7.5-7.5 7.5-19.6 0-27.1L562.9 343l41.9-34.3 62.1 62.1c3.7 3.7 8.6 5.6 13.6 5.6 4.9 0 9.8-1.9 13.6-5.6 7.5-7.5 7.5-19.6 0-27.1l-59.4-59.4 42.8-35.1L840.3 412l-103 125.5c-69.2-31.4-152-17-206.6 37.5-33.2 33.2-52.3 77.2-53.9 124.1-1.4 40.9 10.7 80.6 34.3 113.5-30.8 28.8-70.8 44.7-113.2 44.7-44.3 0-85.9-17.3-117.3-48.6-31.3-31.3-48.6-73-48.6-117.3 0-44 17-85.3 47.9-116.6l106.6-87.4c8.2-6.7 9.4-18.8 2.7-27s-18.8-9.4-27-2.7l-107.4 88c-0.5 0.4-1 0.8-1.4 1.3-38.6 38.6-59.8 89.9-59.8 144.4 0 47.4 16 92.3 45.5 128.6-12.2 7.6-26.4 11.7-41.2 11.7-20.9 0-40.6-8.2-55.4-23l-46.1-46.1c-7.5-7.5-19.6-7.5-27.1 0s-7.5 19.6 0 27.1l46.1 46.1c22 22.1 51.4 34.2 82.5 34.2 25 0 48.7-7.8 68.5-22.2 36.7 30.9 82.7 47.8 131.3 47.8 51.9 0 100.8-19.2 138.7-54.3 35.1 32.2 79.7 48.3 124.4 48.3 47.2 0 94.4-18 130.3-53.9 34.8-34.8 54-81.1 54-130.3 0-49.2-19.2-95.5-54-130.3-6.5-6.5-13.4-12.4-20.6-17.8l109.6-133.7 74.2-74.1z" fill="#2E0C08" p-id="23214"></path><path d="M705.855 223.315l47.588-47.588 160.158 160.158-47.588 47.588z" fill="#D5E6BC" p-id="23215"></path><path d="M729.9 774.2c-19 19-43.9 28.5-68.9 28.5-24.9 0-49.9-9.5-68.9-28.5-18.4-18.4-28.5-42.9-28.5-68.9 0-26 10.1-50.5 28.5-68.9 38-38 99.7-38 137.7 0 18.4 18.4 28.5 42.9 28.5 68.9 0.1 26-10 50.5-28.4 68.9z" fill="#2E0C08" p-id="23216"></path><path d="M807 705.3c0-39-15.2-75.6-42.8-103.2-9.4-9.4-19.9-17.4-31.2-23.8 0 0-0.1 0-0.1-0.1-22.4-12.7-47.1-18.8-71.6-18.8-37.9 0-75.4 14.6-103.4 42.7-53.9 53.9-57 141.1-7.2 198.6 2.3 2.7 4.7 5.3 7.2 7.8 28.5 28.5 65.8 42.7 103.2 42.7 37.4 0 74.8-14.2 103.2-42.7 27.5-27.6 42.7-64.2 42.7-103.2z" fill="#F6442C" p-id="23217"></path><path d="M557.8 808.5c-2.5-2.5-4.9-5.1-7.2-7.8-49.8-57.5-46.6-144.8 7.2-198.6 28.1-28.1 65.6-42.7 103.4-42.7 24.6 0 49.3 6.2 71.6 18.8 0 0 0.1 0 0.1 0.1 11.3 6.4 21.8 14.4 31.2 23.8 27.6 27.6 42.8 64.2 42.8 103.2s-15.2 75.6-42.8 103.2c-28.5 28.5-65.8 42.7-103.2 42.7-37.2 0-74.6-14.2-103.1-42.7z" fill="#F6442C" p-id="23218"></path><path d="M729.9 636.4c-38-38-99.8-38-137.7 0-18.4 18.4-28.5 42.9-28.5 68.9 0 26 10.1 50.5 28.5 68.9 19 19 43.9 28.5 68.9 28.5 24.9 0 49.9-9.5 68.9-28.5 18.4-18.4 28.5-42.9 28.5-68.9-0.1-26-10.2-50.5-28.6-68.9z" fill="#2E0C08" p-id="23219"></path><path d="M702.8 663.6c-11.5-11.5-26.6-17.3-41.8-17.3-15.1 0-30.2 5.8-41.7 17.3-11.2 11.1-17.3 26-17.3 41.8 0 15.8 6.1 30.6 17.3 41.8 23 23 60.5 23 83.5 0 11.1-11.1 17.3-26 17.3-41.7 0-16-6.2-30.8-17.3-41.9z" fill="#FFB2A8" p-id="23220"></path><path d="M619.3 747.1c-11.1-11.1-17.3-26-17.3-41.8s6.1-30.6 17.3-41.8c11.5-11.5 26.6-17.3 41.7-17.3 15.1 0 30.2 5.8 41.8 17.3 11.1 11.1 17.3 26 17.3 41.8 0 15.8-6.1 30.6-17.3 41.7-23 23.1-60.5 23.1-83.5 0.1z" fill="#FFB2A8"></path></svg>