<svg xmlns="http://www.w3.org/2000/svg" xmlns:xlink="http://www.w3.org/1999/xlink" viewBox="0 0 20 20"><g fill="none"><path d="M13.245 2.817a2.783 2.783 0 0 1 4.066 3.796l-.13.14l-9.606 9.606a2.001 2.001 0 0 1-.723.462l-.165.053l-4.055 1.106a.5.5 0 0 1-.63-.535l.016-.08l1.106-4.054c.076-.28.212-.54.398-.76l.117-.128l9.606-9.606zm-.86 2.275L4.346 13.13a1 1 0 0 0-.215.321l-.042.123l-.877 3.21l3.212-.875a1 1 0 0 0 .239-.1l.107-.072l.098-.085l8.038-8.04l-2.521-2.52zm4.089-1.568a1.783 1.783 0 0 0-2.402-.11l-.12.11l-.86.86l2.52 2.522l.862-.86a1.783 1.783 0 0 0 .11-2.402l-.11-.12z" fill="currentColor"></path></g></svg>