<?xml version="1.0" standalone="no"?><!DOCTYPE svg PUBLIC "-//W3C//DTD SVG 1.1//EN" "http://www.w3.org/Graphics/SVG/1.1/DTD/svg11.dtd"><svg t="1633356326300" class="icon" viewBox="0 0 1024 1024" version="1.1" xmlns="http://www.w3.org/2000/svg" p-id="20624" xmlns:xlink="http://www.w3.org/1999/xlink" width="200" height="200"><defs><style type="text/css"></style></defs><path d="M726 352L492 928h94.48l48.98-116h181.08l48.98 116H960z m-53.38 372L726 559.7 779.38 724zM544 640c-0.5-0.38-41.18-31.54-90.84-85.34 79.16-107.28 124-229.22 142.3-286.66H704V180H428V96h-88v84H64v88h438.5c-19.04 53.9-54.1 139-107.58 216.72-65.36-86.88-94.28-151.76-94.66-152.44L286 304l-76 44 13.74 27.72c1.78 3.12 34.38 75.8 109.42 173.14 1.84 2.42 3.7 4.78 5.56 7.14-99.44 113.72-178.3 158.18-179.32 158.94L128 736l46 72 38.6-22.94c4.4-3.34 82.66-48 184-161.56 49.04 52.56 86.44 81.66 88.6 83.34L510 724z" p-id="20625"></path></svg>