<?xml version="1.0" standalone="no"?><!DOCTYPE svg PUBLIC "-//W3C//DTD SVG 1.1//EN" "http://www.w3.org/Graphics/SVG/1.1/DTD/svg11.dtd"><svg t="1633354163991" class="icon" viewBox="0 0 1024 1024" version="1.1" xmlns="http://www.w3.org/2000/svg" p-id="16648" xmlns:xlink="http://www.w3.org/1999/xlink" width="200" height="200"><defs><style type="text/css"></style></defs><path d="M155.417187 327.565431 867.603509 327.565431c20.100804 0 36.394908-16.295128 36.394908-36.396955 0-20.100804-16.295128-36.395932-36.394908-36.395932L155.417187 254.772544c-20.101827 0-36.396955 16.295128-36.396955 36.395932C119.020232 311.269279 135.31536 327.565431 155.417187 327.565431z" p-id="16649"></path><path d="M867.603509 474.816123 155.417187 474.816123c-20.101827 0-36.396955 16.295128-36.396955 36.396955 0 20.100804 16.295128 36.397978 36.396955 36.397978L867.603509 547.611056c20.100804 0 36.394908-16.297175 36.394908-36.397978C903.998417 491.112274 887.703289 474.816123 867.603509 474.816123z" p-id="16650"></path><path d="M867.603509 694.860724 155.417187 694.860724c-20.101827 0-36.396955 16.296151-36.396955 36.396955s16.295128 36.396955 36.396955 36.396955L867.603509 767.654634c20.100804 0 36.394908-16.296151 36.394908-36.396955S887.703289 694.860724 867.603509 694.860724z" p-id="16651"></path></svg>