<?xml version="1.0" standalone="no"?><!DOCTYPE svg PUBLIC "-//W3C//DTD SVG 1.1//EN" "http://www.w3.org/Graphics/SVG/1.1/DTD/svg11.dtd"><svg t="1644628335896" class="icon" viewBox="0 0 1024 1024" version="1.1" xmlns="http://www.w3.org/2000/svg" p-id="1406" xmlns:xlink="http://www.w3.org/1999/xlink"><defs><style type="text/css"></style></defs><path d="M 865.69 513.434 c -13.5168 0 -24.576 11.0592 -24.576 24.576 v 235.52 c 0 43.008 -34.816 77.824 -77.824 77.824 H 240.23 c -43.008 0 -77.824 -34.816 -77.824 -77.824 V 250.47 c 0 -43.008 34.816 -77.824 77.824 -77.824 h 235.52 c 13.5168 0 24.576 -11.0592 24.576 -24.576 s -11.0592 -24.576 -24.576 -24.576 h -235.52 c -70.0416 0 -126.976 56.9344 -126.976 126.976 v 523.059 c 0 70.0416 56.9344 126.976 126.976 126.976 h 523.059 c 70.0416 0 126.976 -56.9344 126.976 -126.976 v -235.52 c 0 -13.5168 -10.8544 -24.576 -24.576 -24.576 Z" p-id="1407"></path><path d="M 678.912 208.486 L 345.702 541.696 l -10.24 10.24 c -3.6864 3.8912 -6.7584 8.6016 -8.3968 13.5168 l -37.0688 111.206 a 35.0003 35.0003 0 0 0 39.936 45.2608 l 124.518 -24.9856 c 6.7584 -1.4336 12.9024 -4.7104 17.8176 -9.4208 l 9.8304 -9.8304 l 387.686 -387.686 c 7.168 -7.168 10.8544 -17.2032 10.0352 -27.2384 a 128.614 128.614 0 0 0 -118.989 -118.989 c -10.24 -0.8192 -20.0704 2.8672 -27.2384 10.0352 l -54.6816 54.6816 Z M 464.486 625.664 l -66.56 -66.56 L 696.32 260.71 l 66.56 66.56 l -298.394 298.394 Z m -96.6656 -27.0336 l 54.6816 54.6816 l -78.2336 15.5648 l 23.552 -70.2464 Z M 763.29 193.536 c 34.4064 5.3248 61.2352 32.1536 66.56 66.56 l -32.3584 32.3584 l -66.56 -66.56 l 32.3584 -32.3584 Z" p-id="1408"></path></svg>