<svg xmlns="http://www.w3.org/2000/svg" xmlns:xlink="http://www.w3.org/1999/xlink" viewBox="0 0 24 24"><g fill="none"><path d="M12 2.001c5.524 0 10 4.477 10 10s-4.476 10-10 10c-5.522 0-10-4.477-10-10s4.478-10 10-10zm0 1.5a8.5 8.5 0 1 0 0 17a8.5 8.5 0 0 0 0-17zm-.352 4.053l.072-.084a.75.75 0 0 1 .977-.073l.084.073l4 4a.75.75 0 0 1 .073.977l-.072.085l-4.002 4a.75.75 0 0 1-1.133-.977l.073-.084l2.722-2.721H7.75a.75.75 0 0 1-.743-.648L7 12a.75.75 0 0 1 .648-.743l.102-.007h6.69l-2.72-2.72a.75.75 0 0 1-.072-.976l.072-.084l-.072.084z" fill="currentColor"></path></g></svg>