<svg xmlns="http://www.w3.org/2000/svg" xmlns:xlink="http://www.w3.org/1999/xlink" viewBox="0 0 32 32"><defs></defs><circle cx="22" cy="24" r="2" fill="currentColor"></circle><path d="M29.777 23.479A8.64 8.64 0 0 0 22 18a8.64 8.64 0 0 0-7.777 5.479L14 24l.223.521A8.64 8.64 0 0 0 22 30a8.64 8.64 0 0 0 7.777-5.479L30 24zM22 28a4 4 0 1 1 4-4a4.005 4.005 0 0 1-4 4z" fill="currentColor"></path><path d="M12 28H7V7h3v3h12V7h3v9h2V7a2 2 0 0 0-2-2h-3V4a2 2 0 0 0-2-2h-8a2 2 0 0 0-2 2v1H7a2 2 0 0 0-2 2v21a2 2 0 0 0 2 2h5zm0-24h8v4h-8z" fill="currentColor"></path></svg>