<svg viewBox="0 0 1024 1024" version="1.1" xmlns="http://www.w3.org/2000/svg"><path d="M511.68 512.62m-421.01 0a421.01 421.01 0 1 0 842.02 0 421.01 421.01 0 1 0-842.02 0Z" fill="#7CB936" p-id="75612"></path><path d="M511.68 91.6c-15.3 0-30.37 0.92-45.25 2.51C677.66 116.69 842.2 295.39 842.2 512.62c0 217.22-164.54 395.92-375.77 418.51 14.87 1.59 29.95 2.51 45.25 2.51 232.52 0 421.02-188.49 421.02-421.01C932.7 280.1 744.2 91.6 511.68 91.6z" fill="#5FA022" p-id="75613"></path><path d="M232.56 828.2l-32.87-31.11c34.46-36.45 50.02-69.33 46.31-97.65-2.08-16.7-10.21-29.96-18.82-44.01-12.19-19.88-26.02-42.46-16.35-71.4 6.98-21.16 22.09-31.86 34.2-40.47 11.62-8.22 16.17-12.06 17.72-19.71 0.66-3.27 0.62-3.84-3.09-11.84-3.36-7.25-8-17.19-11.27-32.65-8.93-42.95-2.08-104.76 33.4-146.12 9.99-11.4 19.13-17.85 26.47-23.06 8.62-6.14 12.19-8.66 15.16-16.48 2.78-7.47 2.3-12.5 1.55-20.1-0.8-8.09-1.81-18.16 1.86-30.18 10.56-33.62 47.41-55.54 112.76-67.2l7.95 44.54c-63.27 11.31-75.25 28.99-77.46 36.05-0.97 3.05-0.71 6.14-0.09 12.33 0.97 9.76 2.3 23.11-4.24 40.47-7.82 20.81-20.28 29.65-31.33 37.47-6.23 4.42-12.15 8.62-18.42 15.77-25.19 29.38-29.78 76.22-23.33 107.24 2.21 10.34 5.17 16.7 8.04 22.89 4.68 10.16 10.03 21.65 6.41 39.81-5.3 26.02-22.98 38.53-35.88 47.68-9.63 6.85-15.2 11.05-17.45 17.81-2.74 8.26 1.33 16.13 12.02 33.58 9.68 15.86 21.78 35.57 25.1 61.81 5.54 42.36-14.08 87.7-58.35 134.53zM424.36 934.91l-34.64-29.07c40.43-48.21 57.04-87.13 47.98-112.67-3.36-9.28-9.23-14.98-17.36-22.84-11.53-11.13-25.85-25.05-32.12-51.43-7.07-30.71 3.45-51.39 13.61-71.36 7.73-15.16 16.44-32.34 21.61-59.47 5.48-28.1 2.83-42.86-0.22-59.96-3.53-19.75-7.51-42.15 2.7-80.64 4.6-17.41 9.94-29.91 14.23-39.94 6.19-14.54 9.9-23.29 9.23-40.47-0.4-12.15-2.74-20.5-5.48-30.18-3.23-11.44-6.85-24.43-7.51-43.61-0.93-28.15 5.21-56.56 18.25-84.39l41 19.18c-10.16 21.65-14.76 42.46-14.01 63.71 0.44 13.74 2.92 22.62 5.83 32.87 3.05 10.91 6.54 23.29 7.16 40.78 1.02 27.22-5.74 43.08-12.86 59.83-3.84 9.06-8.26 19.31-12.11 33.8-7.64 28.85-5.13 43.08-1.9 61.11 3.36 18.82 7.16 40.16 0.13 76.44-6.36 33.4-17.1 54.52-25.72 71.49-9.85 19.31-13.08 26.69-9.9 40.52 3.18 13.39 10.03 20.02 19.57 29.25 9.59 9.28 21.52 20.86 28.45 40.12 15.17 42.71-3.12 94.06-55.92 156.93zM676.7 901.02l-2.3-4.6c-11-23.15-27.09-64.55-39.5-156.55-9.46-69.1-8.13-104.05-7.25-127.21 0.84-21.69 1.19-31.64-7.64-54.79-11.22-29.47-25.27-48.29-38.88-66.5-19.44-26.07-37.78-50.68-35.57-93.67 0.88-16.3 4.37-28.32 7.47-38.88 3.58-12.37 6.67-23.06 5.88-41.05-1.24-26.55-10.29-53.11-26.95-79l38-24.48c21.08 32.7 32.56 66.81 34.11 101.4 1.19 25.49-3.49 41.53-7.6 55.72-2.74 9.5-5.13 17.63-5.74 28.72-1.37 26.6 9.19 40.74 26.69 64.2 14.01 18.73 31.42 42.06 44.85 77.41 12.19 31.77 11.53 48.91 10.6 72.64-0.84 22.84-2.03 54.13 6.85 119.39 12.95 95.66 29.96 131.45 35.52 143.2l-38.54 24.05zM842.79 742.26c-2.47-63.14-15.29-121.15-38.09-172.41-11.58-26.11-23.68-46.48-35.44-66.23-23.82-40.08-44.41-74.67-43.35-131.54 0.09-6.76 0.49-13.74 0.93-20.72 1.55-25.63 1.94-41.98-8.7-54.13-5.61-6.67-10.96-8.75-25.72-13.87-9.1-3.14-19.71-6.85-32.43-12.81-32.34-15.38-60.4-35.88-85.85-62.83l32.87-31.11c21.52 22.84 45.16 40.16 72.24 52.98 10.96 5.17 20.15 8.31 28.01 11.05 16.22 5.61 31.55 10.91 45.2 27.13 23.11 26.47 21.21 58.24 19.53 86.29-0.4 6.23-0.75 12.5-0.84 18.73-0.84 44.1 15.02 70.78 36.98 107.72 11.84 19.88 25.27 42.42 37.91 70.96 25.14 56.51 39.24 120.14 41.98 189.02l-45.23 1.77z" fill="#168534" p-id="75614"></path><path d="M420.27 200.14a91.41 34.95 0 1 0 182.82 0 91.41 34.95 0 1 0-182.82 0Z" fill="#8BB82A" p-id="75615"></path><path d="M511.67 257.69c-56.73 0-114-17.81-114-57.57 0-79.49 228.04-79.4 228.04 0 0 39.77-57.26 57.57-114.04 57.57z m-64.55-57.57c9.94 5.57 32.52 12.33 64.55 12.33 32.03 0 54.61-6.76 64.6-12.33-9.99-5.52-32.56-12.28-64.6-12.28-31.99 0-54.57 6.76-64.55 12.28z" fill="#000000" p-id="75616"></path><path d="M511.67 956.25c-244.61 0-443.61-199.01-443.61-443.61 0-244.65 199.01-443.66 443.61-443.66 244.65 0 443.66 199.01 443.66 443.66 0 244.6-199.01 443.61-443.66 443.61z m0-842.03c-219.64 0-398.37 178.73-398.37 398.41C113.3 732.27 292.03 911 511.67 911c219.69 0 398.41-178.73 398.41-398.37 0-219.68-178.72-398.41-398.41-398.41z" fill="#000000" p-id="75617"></path><path d="M200.52 454.98c-2.03 0-4.06-0.27-6.14-0.84-12.02-3.4-19.04-15.91-15.64-27.92 18.78-66.59 50.9-127.3 92.83-175.63 8.26-9.37 22.49-10.43 31.95-2.25 9.41 8.22 10.43 22.49 2.25 31.95-37.65 43.3-66.5 98.05-83.46 158.23-2.83 9.96-11.89 16.46-21.79 16.46z" fill="#FFFFFF"></path></svg>