<svg viewBox="0 0 1024 1024" version="1.1" xmlns="http://www.w3.org/2000/svg"><path d="M64 880a448 80 0 1 0 896 0 448 80 0 1 0-896 0Z" fill="#286432" opacity=".5" p-id="73052"></path><path d="M240.393 407.259C135.225 585.355 53.635 788.552 87.215 846.713c63.335 109.7 785.902 108.312 849.149 0 10.706-18.334 9.674-51.533-0.109-94.036-173.841-8.127-565.666-210.263-695.862-345.418z" fill="#419646" p-id="73053"></path><path d="M787.58 415.295c-56.221 55.887-160.055 122.765-274.328 181.582 152.444 82.878 323.46 151.147 423.003 155.8-20.428-88.75-79.029-218.073-148.675-337.382z" fill="#419646" p-id="73054"></path><path d="M511.789 111.328c-66.491 0-178.201 138.109-271.396 295.93 55.644 57.763 159.079 127.76 272.859 189.618 114.274-58.817 218.107-125.695 274.328-181.582-94.05-161.114-208.243-303.966-275.791-303.966z" fill="#419646" p-id="73055"></path><path d="M946.276 761.154l0.141 0.007-2.366-10.278-1.361-5.914-0.046-0.002c-20.68-84.815-74.438-206.556-145.043-328.354l0.008-0.008-3.12-5.344-5.214-8.932-0.022 0.022c-47.647-80.627-98.383-153.049-143.479-204.718-54.616-62.576-99.695-94.305-133.984-94.305-33.794 0-78.099 30.781-131.682 91.488-44.872 50.837-93.584 119.61-141.231 199.337l-0.022-0.023-5.35 9.061-3.093 5.237 0.011 0.011c-52.87 90.157-97.589 182.557-126.163 260.777-15.371 42.075-25.456 78.457-29.975 108.136-5.035 33.061-3.015 57.743 6.002 73.361 36.148 62.609 251.221 85.323 424.414 85.749 1.765 0.004 3.528 0.006 5.291 0.006 101.364 0 198.646-7.173 274.463-20.261 88.99-15.362 142.424-37.386 158.818-65.46 10.465-17.924 11.463-48.041 3.003-89.593zM567.694 616.478c-1.049-0.533-2.095-1.068-3.142-1.603a2129.63 2129.63 0 0 1-3.964-2.03l-2.753-1.417c-1.527-0.787-3.054-1.576-4.582-2.369l-2.096-1.088c-1.874-0.974-3.748-1.952-5.623-2.935l-1.059-0.554a2055.653 2055.653 0 0 1-14.118-7.475l0.733-0.387c3.087-1.619 6.161-3.239 9.219-4.862l0.939-0.5a2025.77 2025.77 0 0 0 9.498-5.079l0.2-0.108c3.169-1.707 6.32-3.415 9.455-5.125l0.626-0.341a2003.23 2003.23 0 0 0 9.025-4.96l1.163-0.642c2.885-1.597 5.752-3.196 8.605-4.795l1.427-0.8a1862.51 1862.51 0 0 0 8.388-4.739l1.406-0.8c2.807-1.599 5.6-3.198 8.374-4.798l1.133-0.655c2.861-1.653 5.707-3.305 8.531-4.958l0.599-0.352a1749.78 1749.78 0 0 0 8.357-4.926l0.671-0.397c2.744-1.63 5.464-3.258 8.17-4.886l1.233-0.741c2.603-1.569 5.185-3.137 7.751-4.704l1.454-0.889a1593.05 1593.05 0 0 0 7.521-4.633l1.464-0.909c2.491-1.548 4.966-3.095 7.419-4.64l1.315-0.831c2.51-1.584 5.005-3.167 7.475-4.747 0.287-0.184 0.57-0.367 0.857-0.55 2.439-1.563 4.859-3.125 7.258-4.683l0.693-0.449c2.443-1.59 4.86-3.176 7.261-4.761l1.193-0.786a1217.961 1217.961 0 0 0 8.242-5.501 1220.932 1220.932 0 0 0 14.522-9.931l1.217-0.849c2.198-1.532 4.379-3.062 6.532-4.586l0.863-0.614c2.152-1.527 4.283-3.051 6.389-4.57l0.478-0.343a981.317 981.317 0 0 0 6.41-4.673l0.958-0.703a933.016 933.016 0 0 0 6.007-4.466l1.129-0.847a876.257 876.257 0 0 0 6.892-5.239 813.696 813.696 0 0 0 5.62-4.356c0.328-0.256 0.652-0.512 0.978-0.768a721.07 721.07 0 0 0 5.609-4.446l0.646-0.521a666.707 666.707 0 0 0 5.648-4.582l0.132-0.108a644.349 644.349 0 0 0 5.537-4.602l0.606-0.508a587.386 587.386 0 0 0 5.119-4.365c0.258-0.223 0.519-0.446 0.776-0.669a524.087 524.087 0 0 0 4.852-4.251l0.775-0.688a477.815 477.815 0 0 0 4.686-4.224c0.221-0.201 0.439-0.402 0.658-0.603a452.11 452.11 0 0 0 4.604-4.276l0.14-0.13a1995.681 1995.681 0 0 1 35.596 64.385l-1.394 1.693c-3.743 4.629-7.895 8.936-12.106 13.136-8.508 8.344-17.673 16.017-27.206 23.192l-7.185 5.333-7.319 5.155-7.406 5.027c-2.474 1.664-5.007 3.255-7.502 4.882-5.012 3.234-10.064 6.402-15.189 9.456l-3.821 2.318-3.866 2.25c-2.574 1.502-5.142 3.008-7.758 4.44-10.37 5.875-21.28 10.809-32.139 15.627a378.084 378.084 0 0 0-16.043 7.596c-2.622 1.359-5.248 2.69-7.841 4.099l-7.746 4.289a1497.333 1497.333 0 0 0-30.769 18.006l-15.517 9.401c-2.597 1.666-5.237 3.179-7.878 4.87-0.168 0.108-0.337 0.211-0.506 0.318a1997.123 1997.123 0 0 1-14.158-6.937l-0.065-0.032a1985.828 1985.828 0 0 1-13.372-6.681c-1.06-0.534-2.117-1.07-3.175-1.605-1.245-0.631-2.49-1.261-3.736-1.895z m307.093-14.08a141.068 141.068 0 0 1-4.046 5.346 189.705 189.705 0 0 1-13.483 15.125l-3.565 3.595-3.641 3.518c-2.446 2.326-4.891 4.637-7.406 6.88a293.074 293.074 0 0 1-7.528 6.705c-2.508 2.224-5.081 4.379-7.661 6.508-5.133 4.295-10.907 7.865-16.507 11.447a99.84 99.84 0 0 0-8.01 5.741 104.502 104.502 0 0 0-3.699 3.187 141.123 141.123 0 0 0-3.521 3.398c-4.592 4.67-9 9.566-13.332 14.823l-3.245 4.025-3.266 4.182c-1.081 1.479-2.203 2.874-3.321 4.422l-1.709 2.317c-0.261 0.385-0.532 0.757-0.803 1.135-46.613-16.563-97.494-37.752-150.087-62.623 1.484-0.125 2.947-0.313 4.429-0.468 3.202-0.337 6.362-0.822 9.498-1.39 12.585-2.209 24.781-5.792 36.559-10.261l4.396-1.73c1.461-0.586 2.88-1.253 4.323-1.876 2.865-1.288 5.72-2.604 8.485-4.081 5.581-2.868 10.95-6.123 16.197-9.56 10.465-6.938 20.446-14.539 30.589-21.778 20.247-14.538 39.516-30.495 56.885-48.472l6.396-6.85c2.09-2.327 4.135-4.697 6.195-7.036l5.963-7.239c1.907-2.492 3.809-4.971 5.641-7.506 3.325-4.76 6.544-9.579 9.398-14.633 18.553 35.41 35.318 70.111 49.876 103.149z m-90.352 107.369c0.341-0.032 0.679-0.059 1.022-0.09 0.981-0.118 1.94-0.292 2.919-0.441 1.967-0.298 3.852-0.743 5.74-1.21 7.524-1.936 14.507-4.981 20.957-8.694a59.052 59.052 0 0 0 4.694-2.978 53.147 53.147 0 0 0 4.389-3.35c2.821-2.359 5.392-4.988 7.802-7.77 4.792-5.599 9.085-11.577 13.694-17.15 2.285-2.809 4.543-5.63 6.724-8.514 1.1-1.432 2.17-2.889 3.22-4.361 1.054-1.469 2.121-2.92 3.138-4.417a278.756 278.756 0 0 0 5.928-9.081l2.793-4.652 2.694-4.711c3.4-6.311 6.612-12.726 9.223-19.43 20.974 48.662 36.964 93.408 46.535 131.03-37.484-3.355-86.155-15.308-141.472-34.181zM511.789 119.328c29.049 0 71.211 30.715 121.93 88.826 45.114 51.689 96.045 124.594 143.796 205.788l-0.36 0.348c-0.382 0.366-0.769 0.734-1.155 1.101-0.479 0.456-0.959 0.912-1.445 1.37-0.389 0.367-0.784 0.735-1.177 1.103-0.496 0.464-0.992 0.927-1.494 1.393-0.394 0.365-0.793 0.732-1.192 1.099-0.508 0.467-1.017 0.935-1.532 1.404-0.404 0.369-0.812 0.738-1.221 1.108-0.524 0.475-1.051 0.95-1.582 1.426-0.405 0.364-0.814 0.728-1.223 1.093a459.606 459.606 0 0 1-2.875 2.543c-0.558 0.489-1.118 0.98-1.683 1.471a490.021 490.021 0 0 1-2.992 2.584l-1.252 1.071a619.653 619.653 0 0 1-6.16 5.18c-0.646 0.536-1.297 1.072-1.95 1.609l-1.231 1.012c-0.67 0.549-1.347 1.099-2.025 1.65l-1.198 0.972a732.426 732.426 0 0 1-5.572 4.455l-1.055 0.836c-0.812 0.64-1.632 1.282-2.453 1.924l-0.954 0.747c-0.884 0.689-1.777 1.38-2.672 2.071-0.263 0.203-0.523 0.406-0.787 0.609a811.416 811.416 0 0 1-3.067 2.349l-0.442 0.338a894.524 894.524 0 0 1-18.694 13.844l-0.054 0.039a902.69 902.69 0 0 1-3.795 2.723l-0.505 0.359c-1.129 0.805-2.262 1.61-3.404 2.418l-0.73 0.514c-1.077 0.76-2.157 1.52-3.245 2.282l-0.827 0.577c-1.056 0.738-2.115 1.476-3.181 2.215l-0.977 0.675c-1.023 0.708-2.048 1.415-3.081 2.125l-1.087 0.744c-1.005 0.689-2.014 1.378-3.028 2.068l-1.153 0.783a1055.63 1055.63 0 0 1-3.026 2.047l-1.175 0.79c-1.011 0.68-2.026 1.361-3.046 2.042l-1.219 0.813c-1.012 0.674-2.028 1.349-3.048 2.025l-1.253 0.828a1655.47 1655.47 0 0 1-3.075 2.025l-1.265 0.829c-1.032 0.676-2.067 1.351-3.107 2.028l-1.281 0.832c-1.047 0.679-2.097 1.359-3.152 2.039l-1.276 0.822a1613.417 1613.417 0 0 1-4.492 2.878c-1.071 0.684-2.148 1.368-3.227 2.052l-1.275 0.808a1200.51 1200.51 0 0 1-3.316 2.091l-1.242 0.781c-1.132 0.711-2.27 1.422-3.411 2.133l-1.19 0.743c-1.177 0.733-2.36 1.466-3.545 2.199-0.363 0.225-0.725 0.45-1.09 0.674a1335.38 1335.38 0 0 1-4.692 2.885 1589.31 1589.31 0 0 1-3.89 2.374l-0.842 0.513c-1.37 0.833-2.747 1.666-4.128 2.499l-0.653 0.395c-1.569 0.946-3.144 1.892-4.727 2.839l-0.068 0.041a1688.348 1688.348 0 0 1-19.915 11.729l-0.238 0.138c-1.582 0.917-3.169 1.834-4.762 2.751l-0.884 0.507a1905.822 1905.822 0 0 1-5.446 3.118c-1.253 0.714-2.507 1.429-3.766 2.143-0.51 0.29-1.024 0.579-1.535 0.868-1.184 0.67-2.37 1.34-3.56 2.01-0.582 0.328-1.167 0.655-1.751 0.983l-3.373 1.891a3318.247 3318.247 0 0 1-5.177 2.882l-2.021 1.119a2266.161 2266.161 0 0 1-5.31 2.927 1493.778 1493.778 0 0 1-5.313 2.906 2120.368 2120.368 0 0 1-8.388 4.545l-2.286 1.229a2133.135 2133.135 0 0 1-5.396 2.888c-1.012 0.539-2.025 1.079-3.041 1.618l-2.388 1.266c-0.993 0.526-1.989 1.051-2.985 1.577l-2.472 1.302a2755.032 2755.032 0 0 1-8.465 4.423l-2.5 1.298-0.97 0.501c-1.76-0.962-3.516-1.924-5.267-2.887l-0.38-0.209c-1.604-0.883-3.205-1.766-4.801-2.65-107.235-59.409-199.033-122.955-250.746-174.276l-0.278-0.278c-0.496-0.493-0.98-0.983-1.469-1.474 18.943-31.842 38.359-62.34 57.678-90.692 0.743 2.138 1.587 4.226 2.477 6.294 2.301 5.351 5.174 10.274 8.19 15.155 3.154 4.672 6.406 9.428 10.07 13.639a289.01 289.01 0 0 0 5.51 6.388c1.889 2.072 3.881 3.995 5.855 5.969 2.003 1.933 4.016 3.863 6.09 5.72 2.086 1.833 4.274 3.505 6.475 5.178 4.43 3.291 8.939 6.529 13.761 9.195 4.795 2.727 9.612 5.394 14.407 8.061 4.875 2.513 9.72 5.042 14.459 7.719 2.381 1.318 4.734 2.687 7.134 3.96l7.242 3.724 14.506 7.346c9.836 4.536 19.676 9.01 29.583 13.263l15.017 6.011 7.493 2.997c2.495 0.999 4.981 2.017 7.535 2.88l15.207 5.388c5.087 1.74 10.144 3.526 15.237 5.215l1.324-2.913c-4.543-2.862-9.121-5.626-13.67-8.437l-13.699-8.264c-9.053-5.63-18.009-11.371-26.976-17.027-2.268-1.367-4.434-2.906-6.645-4.364l-6.597-4.421c-4.395-2.942-8.832-5.801-13.19-8.769l-12.942-9.042-6.482-4.469c-2.139-1.516-4.213-3.116-6.32-4.668-4.209-3.109-8.311-6.366-12.385-9.64l-11.769-10.29c-1.985-1.669-3.985-3.314-5.912-5.016a149.465 149.465 0 0 0-5.978-4.859c-2.016-1.582-4.135-3.052-6.192-4.568-2.027-1.544-4.116-3.015-6.214-4.483l-6.397-4.294a251.452 251.452 0 0 0-6.343-4.336 181.262 181.262 0 0 0-3.249-2.114c-1.104-0.693-2.116-1.444-3.189-2.16-2.118-1.45-4.308-2.848-6.515-4.255-4.262-2.897-8.721-5.72-13.105-8.673l-1.698-1.085c-0.568-0.362-1.075-0.758-1.642-1.122-1.111-0.74-2.211-1.506-3.375-2.244l-1.362-0.94c22.333-32.317 44.46-61.645 65.493-86.72a252.37 252.37 0 0 0 5.756 6.176 370.122 370.122 0 0 0 7.96 7.941c1.338 1.308 2.709 2.568 4.074 3.838 1.368 1.265 2.722 2.553 4.116 3.782 11.057 9.973 22.608 19.255 34.539 27.967 11.942 8.696 24.48 16.483 37.613 23.276l9.849 5.087 9.925 4.954 9.88 5.015 9.818 5.111c26.039 13.861 52.598 26.796 79.471 38.971 26.956 12.02 54.258 23.275 82.039 33.06l1.3-2.924c-6.38-3.657-12.792-7.215-19.171-10.817-6.433-3.484-12.725-7.255-19.039-10.957l-9.476-5.529-4.741-2.747-4.691-2.849-18.742-11.382c-6.245-3.785-12.406-7.732-18.605-11.585l-9.301-5.772-9.222-5.913c-6.159-3.919-12.341-7.784-18.472-11.74l-18.376-11.885c-6.141-3.927-12.097-8.175-18.08-12.357-5.976-4.196-11.892-8.484-17.816-12.755-5.946-4.233-12.006-8.271-18.143-12.189-6.141-3.911-12.471-7.52-18.843-11.073a623.99 623.99 0 0 0-39.255-19.84c-8.871-4.015-17.829-7.914-27.095-11.405a746.065 746.065 0 0 1 5.521-6.337c49.705-56.31 91.092-86.075 119.688-86.075z m-7.05 801.134c-215.63-0.531-384.473-32.502-410.597-77.749-14.309-24.784-5.379-84.45 25.145-168.006 0.827-2.264 1.67-4.543 2.525-6.831 3.187 7.836 6.82 15.523 10.95 22.926l2.455 4.453c0.841 1.47 1.607 3.004 2.515 4.427 1.773 2.879 3.6 5.73 5.407 8.607l2.736 4.305c0.917 1.434 1.94 2.775 2.907 4.17 1.964 2.761 3.915 5.545 5.924 8.286 16.148 21.87 35.013 41.641 55.407 59.49l7.752 6.574 3.901 3.261c1.303 1.084 2.662 2.089 3.99 3.138 2.662 2.09 5.376 4.112 8.064 6.169l4.054 3.057 4.153 2.909c11.047 7.804 22.49 15.009 34.193 21.712l8.834 4.922 4.414 2.457c1.479 0.803 2.984 1.562 4.477 2.338l8.972 4.628c2.986 1.548 5.97 3.094 9.009 4.532l9.067 4.397c3.023 1.459 6.029 2.951 9.087 4.331l9.135 4.213 4.565 2.104a116.15 116.15 0 0 0 4.59 2.047 756.049 756.049 0 0 0 74.905 28.737c25.463 8.097 51.298 14.881 77.385 20.275a752.568 752.568 0 0 0 21.873 4.083c-5.917 0.035-11.848 0.05-17.794 0.038z m276.993-20.022c-55.323 9.55-122.297 15.89-193.985 18.571-28.165-4.417-55.996-10.539-83.331-18.224a751.314 751.314 0 0 1-74.013-24.773 732.746 732.746 0 0 1-71.004-31.788 109.868 109.868 0 0 1-4.304-2.248l-4.275-2.301-8.545-4.598c-2.874-1.482-5.621-3.201-8.419-4.818l-8.358-4.909a740.54 740.54 0 0 1-32.554-20.9c-10.661-7.207-21.18-14.561-31.618-21.995l-3.936-2.759-3.865-2.847c-2.591-1.879-5.156-3.793-7.773-5.639-1.296-0.939-2.626-1.838-3.894-2.811l-3.819-2.901-7.688-5.75c-20.406-15.445-40.138-31.807-58.653-49.625-4.529-4.53-9.347-8.873-13.708-13.596l-6.75-6.964c-2.239-2.338-4.321-4.796-6.52-7.188l-3.291-3.602-1.65-1.806c-0.536-0.612-1.042-1.243-1.57-1.861-2.095-2.484-4.177-4.991-6.324-7.476-1.053-1.255-2.171-2.477-3.175-3.766l-3.036-3.873c-0.2-0.247-0.398-0.498-0.598-0.746 15.389-40.152 34.772-83.667 57.111-128.421a149.572 149.572 0 0 0 2.909 7.858l2.703 6.323c0.969 2.073 2.004 4.108 3.01 6.172 0.511 1.026 1.003 2.069 1.543 3.079l1.668 2.995c1.124 1.991 2.211 4.022 3.377 5.992 9.424 15.703 20.543 30.328 32.592 43.983l4.583 5.059c1.526 1.692 3.055 3.384 4.635 5.013 3.152 3.27 6.283 6.587 9.538 9.743 3.229 3.192 6.443 6.414 9.795 9.462l4.981 4.639 5.058 4.54 5.082 4.518 5.179 4.388 5.186 4.386 5.255 4.288 5.285 4.255 5.355 4.151 5.358 4.152 5.418 4.061c28.988 21.549 59.723 40.495 91.567 57.11 31.887 16.552 64.426 31.608 97.274 45.792a1404.703 1404.703 0 0 0 49.656 20.314 1318.39 1318.39 0 0 0 50.413 18.273c33.89 11.366 68.261 21.295 103.066 29.413 17.414 4.009 34.935 7.559 52.556 10.533 17.622 2.959 35.339 5.401 53.147 6.96 17.802 1.575 35.681 2.395 53.549 2.11 11.629-0.222 23.255-0.914 34.804-2.202-25.873 12.574-64.943 23.614-114.997 32.254z m147.723-57.761c-4.154 7.114-11.996 13.979-23.234 20.487-14.713 1.103-29.479 1.153-44.19 0.443-17.569-0.808-35.077-2.671-52.462-5.288-34.779-5.243-69.102-13.25-102.876-23.024-33.806-9.677-67.102-21.114-99.833-33.932a1294.756 1294.756 0 0 1-48.785-19.96c-16.113-7-32.088-14.307-47.91-21.911-3.941-1.934-7.905-3.816-11.823-5.791l-11.764-5.902c-3.904-1.999-7.776-4.064-11.663-6.094-3.881-2.042-7.724-4.156-11.586-6.229a1247.516 1247.516 0 0 1-45.588-26.129l-11.257-6.726c-3.729-2.277-7.437-4.587-11.181-6.834l-11.144-6.872-11.103-6.919c-14.774-9.259-29.448-18.637-43.927-28.276-28.941-19.281-57.095-39.7-83.136-62.476-13.006-11.397-25.339-23.492-36.692-36.506-1.418-1.627-2.754-3.308-4.141-4.965l-2.068-2.5-1.967-2.562c-1.303-1.716-2.647-3.419-3.929-5.161l-3.713-5.316a195.264 195.264 0 0 1-7.189-11.578c17.085-33.8 35.804-68.226 55.731-102.377 53.002 52.243 144.374 115.654 254.181 176.371l-0.06 0.031 13.284 7.222 3.719 2.022 0.008-0.004c3.625 1.962 7.263 3.919 10.918 5.869l0.464 0.247c4.491 2.395 9.005 4.779 13.537 7.154l2.14 1.119c3.869 2.021 7.753 4.035 11.65 6.04 1.148 0.591 2.296 1.183 3.444 1.771 3.359 1.72 6.73 3.432 10.107 5.139 48.301 24.425 96.393 46.388 142.326 64.998 1.02 0.413 2.043 0.832 3.06 1.242 2.782 1.12 5.551 2.222 8.316 3.317a1428.624 1428.624 0 0 0 12.236 4.789c2.287 0.883 4.562 1.754 6.832 2.617 1.19 0.453 2.393 0.924 3.579 1.371 1.163 0.439 2.315 0.865 3.473 1.299l1.976 0.739c3.386 1.26 6.752 2.5 10.092 3.713 0.932 0.339 1.856 0.668 2.784 1.003 2.432 0.876 4.851 1.74 7.257 2.59 0.828 0.293 1.67 0.601 2.496 0.891 64.507 22.659 118.26 35.59 159.915 38.48 10.596 49.24 5.778 71.953-0.304 82.368z" fill="#286432" p-id="73056"></path><path d="M889.554 555.415a8.002 8.002 0 0 0-11.14-1.97c-0.396 0.277-40.362 28.009-104.949 55.364a735.09 735.09 0 0 1-45.67 17.557c-3.03-12.74-8.196-23.492-15.496-32.107C697.534 576.835 674.218 568 643 568c-29.989 0-59.875 10.555-84.153 29.721-13.132 10.367-23.31 22.453-29.41 34.434A8 8 0 0 0 523 640a8 8 0 0 0-16 0 8 8 0 0 0-6.437-7.845c-6.101-11.981-16.278-24.068-29.41-34.434C446.875 578.555 416.989 568 387 568c-31.218 0-54.534 8.835-69.299 26.26-7.3 8.615-12.465 19.367-15.496 32.107a735.723 735.723 0 0 1-45.67-17.557c-64.488-27.313-104.431-55.003-104.947-55.363a8.001 8.001 0 0 0-9.176 13.108c1.662 1.163 41.448 28.805 107.463 56.811a751.788 751.788 0 0 0 49.738 19.031A147.59 147.59 0 0 0 299 656c0 26.325 6.292 47.097 18.701 61.74C332.466 735.165 355.782 744 387 744c29.989 0 59.875-10.555 84.153-29.721 8.436-6.66 15.648-14.03 21.349-21.626a7.981 7.981 0 0 0 6.499 3.346 7.988 7.988 0 0 0 6.914-3.989C503.58 703.324 499 729.639 499 762c0 56.789 14.438 104.854 41.753 138.998a7.985 7.985 0 0 0 6.252 3.003 8.002 8.002 0 0 0 6.243-12.998c-31.531-39.414-38.203-91.696-38.247-128.616a329.95 329.95 0 0 1 0.293-14.213c7.522 31.815 23.59 78.487 57.459 120.824a8.002 8.002 0 0 0 12.495-9.995C523.856 782.264 523.001 688.928 523 688a8 8 0 0 0 8 8 7.984 7.984 0 0 0 6.499-3.346c5.7 7.595 12.912 14.966 21.349 21.626C583.125 733.445 613.011 744 643 744c31.218 0 54.534-8.835 69.299-26.26C724.708 703.097 731 682.325 731 656c0-4.717-0.211-9.247-0.613-13.604a751.788 751.788 0 0 0 49.738-19.031c66.015-28.006 105.802-55.648 107.463-56.811a7.999 7.999 0 0 0 1.966-11.139z m-320.793 54.864C581.193 600.465 607.37 584 643 584c40.044 0 62.643 15.21 69.63 47.441-48.465 15.639-107.686 29.133-172.585 31.986-0.682-2.582-1.045-5.073-1.045-7.427 0-13.502 11.682-31.449 29.761-45.721zM387 584c35.63 0 61.807 16.465 74.239 26.279C479.318 624.551 491 642.498 491 656c0 2.354-0.363 4.845-1.045 7.427-64.899-2.852-124.12-16.347-172.585-31.986C324.357 599.21 346.956 584 387 584z m74.239 117.721C448.807 711.535 422.63 728 387 728c-49.122 0-72-22.878-72-72 0-2.906 0.086-5.713 0.247-8.435 47.421 15.094 104.651 28.063 167.309 31.521-5.163 7.79-12.471 15.652-21.317 22.635zM715 656c0 49.122-22.878 72-72 72-35.63 0-61.807-16.465-74.239-26.279-8.845-6.983-16.153-14.845-21.317-22.636 62.658-3.457 119.888-16.427 167.309-31.521 0.161 2.723 0.247 5.53 0.247 8.436z" fill="#FFA000" p-id="73057"></path></svg>